<svg id="Иконки" xmlns="http://www.w3.org/2000/svg" width="500" height="500" viewBox="0 0 500 500">
  <metadata><?xpacket begin="﻿" id="W5M0MpCehiHzreSzNTczkc9d"?>
<x:xmpmeta xmlns:x="adobe:ns:meta/" x:xmptk="Adobe XMP Core 5.6-c142 79.160924, 2017/07/13-01:06:39        ">
   <rdf:RDF xmlns:rdf="http://www.w3.org/1999/02/22-rdf-syntax-ns#">
      <rdf:Description rdf:about=""/>
   </rdf:RDF>
</x:xmpmeta>
                                                                                                    
                                                                                                    
                                                                                                    
                                                                                                    
                                                                                                    
                                                                                                    
                                                                                                    
                                                                                                    
                                                                                                    
                                                                                                    
                                                                                                    
                                                                                                    
                                                                                                    
                                                                                                    
                                                                                                    
                                                                                                    
                                                                                                    
                                                                                                    
                                                                                                    
                                                                                                    
                           
<?xpacket end="w"?></metadata>
<defs>
    <style>
      .cls-1 {
        fill: #755894;
      }

      .cls-2 {
        fill: #fff;
        fill-rule: evenodd;
      }
    </style>
  </defs>
  <circle id="Круглый_фон" data-name="Круглый фон" class="cls-1" cx="250" cy="250" r="250"/>
  <path id="viber" class="cls-2" d="M355.664,149.132c-11.016-9.439-23.934-15.141-37.8-18.779a270.079,270.079,0,0,0-105.873-6.565c-18.095,2.462-35.575,7.26-51.656,16.311-18.887,10.63-31.879,25.94-37.629,47.185a217.3,217.3,0,0,0-6.861,46.181c-1.149,23.04-.4,45.929,5.477,68.408,6.8,26.011,21.593,45.17,46.935,55.369,2.764,1.113,5.362,2.64,8.114,3.79,2.537,1.059,3.315,2.745,3.3,5.5C179.54,384.52,179.6,402.51,179.6,421.3c6.656-6.443,11.251-11.184,14.594-14.976,9.98-11.317,19.423-20.737,29.83-31.5,5.275-5.456,3.058-5.191,11.241-5.057,9.628,0.158,24.753.538,34.322-.214,18.258-1.434,36.365-3.765,53.979-9.072,22.372-6.74,40.3-18.757,49.389-41.451a135.124,135.124,0,0,0,6.258-18.394c8.737-36.118,7.568-72.3.266-108.438C376.087,175.417,368.932,160.5,355.664,149.132Zm-111.2,21.9c0.192-3.479,2.174-4.82,5.44-4.663,27.782,1.331,48.7,9.615,64.781,31.337,9.426,12.731,14.514,29.915,15.026,45.883,0,2.371.1,4.748-.027,7.111-0.147,2.641-1.3,4.658-4.257,4.689-2.991.031-4.456-1.592-4.659-4.638a108.333,108.333,0,0,0-7.53-34.166c-8.679-21.2-25.318-32.618-46.7-38.132a102.125,102.125,0,0,0-17.216-3.134C246.684,175.1,244.275,174.541,244.467,171.03Zm28.029,29.6a92.126,92.126,0,0,0-17.309-4.442c-2.876-.419-4.929-1.946-4.4-5.322,0.5-3.175,2.569-4.436,5.609-4.147,19.388,1.847,34.535,8.924,44.965,25.776,4.876,7.879,7.743,19.041,7.312,27.414-0.305,5.934-1.207,7.466-4.588,7.373-4.922-.134-4.2-4.2-4.573-7.183a93.68,93.68,0,0,0-2.82-13.533C293.1,213.726,285.082,205.052,272.5,200.629Zm16.413,32.805a35.762,35.762,0,0,1-.459,3.864,4.084,4.084,0,0,1-4.2,3.516c-2.384.038-3.669-1.381-4.294-3.44a43.454,43.454,0,0,1-.825-4.407c-1.509-7.838-5.975-12.972-13.74-15.065-0.956-.258-1.945-0.395-2.9-0.659-2.451-.681-5.5-0.734-5.6-4.331-0.084-2.979,2.174-4.752,6.25-5,2.769-.17,7.057,1.2,9.541,2.414C282.887,215.314,287.653,222.338,288.909,233.434Zm40.819,82.6c-5.385,12.234-14.6,20.307-27.49,23.964-4.672,1.326-9.2.186-13.473-1.637C229.979,313.255,187.5,271.834,163.442,212.043a32.146,32.146,0,0,1-2.588-12.926c0.031-15.4,13.5-29.633,28.255-30.451a13.8,13.8,0,0,1,10.553,3.929,112.221,112.221,0,0,1,24.816,33.938c3.307,6.986,1.921,11.911-4.031,16.915-0.953.8-1.985,1.506-2.989,2.243-7.906,5.8-9.673,11.729-5.892,20.871a75.66,75.66,0,0,0,29.911,35.472c5.141,3.289,10.393,6.407,16.316,8.139,5.422,1.585,9.776-.111,13.259-4.41,0.393-.485.755-0.994,1.119-1.5,7.58-10.528,15.692-12.352,26.679-5.513a220.053,220.053,0,0,1,26.733,19.779C331.29,303.415,332.748,309.17,329.728,316.033Z"/>
</svg>
