<svg id="Иконки" xmlns="http://www.w3.org/2000/svg" width="500" height="500" viewBox="0 0 500 500">
  <metadata><?xpacket begin="﻿" id="W5M0MpCehiHzreSzNTczkc9d"?>
<x:xmpmeta xmlns:x="adobe:ns:meta/" x:xmptk="Adobe XMP Core 5.6-c142 79.160924, 2017/07/13-01:06:39        ">
   <rdf:RDF xmlns:rdf="http://www.w3.org/1999/02/22-rdf-syntax-ns#">
      <rdf:Description rdf:about=""/>
   </rdf:RDF>
</x:xmpmeta>
                                                                                                    
                                                                                                    
                                                                                                    
                                                                                                    
                                                                                                    
                                                                                                    
                                                                                                    
                                                                                                    
                                                                                                    
                                                                                                    
                                                                                                    
                                                                                                    
                                                                                                    
                                                                                                    
                                                                                                    
                                                                                                    
                                                                                                    
                                                                                                    
                                                                                                    
                                                                                                    
                           
<?xpacket end="w"?></metadata>
<defs>
    <style>
      .cls-1 {
        fill: #3da3dd;
      }

      .cls-2 {
        fill: #fff;
        fill-rule: evenodd;
      }
    </style>
  </defs>
  <circle id="Круглый_фон" data-name="Круглый фон" class="cls-1" cx="250" cy="250" r="250"/>
  <path id="skype" class="cls-2" d="M389.5,275.027a142,142,0,0,0,2.129-24.525c0-77.823-63.013-140.909-140.747-140.909a141.684,141.684,0,0,0-24.529,2.136A84,84,0,0,0,112.063,227.177a142.083,142.083,0,0,0-1.929,23.325c0,77.821,63.015,140.909,140.747,140.909a141.207,141.207,0,0,0,23.934-2.041A83.992,83.992,0,0,0,389.5,275.027ZM194.181,279.89c14.016-.749,18.693,15.949,29.114,23.15,11.56,7.834,47.86,16.171,58.513-8.12,7.876-20.978-15.264-24.167-38.054-29.778-34.879-7.473-64.082-16.483-63.826-52.167-0.159-34.407,27.047-48.562,53.217-50.937,31.119-2.775,54.084,3.765,71.111,17.639,19.85,16.954,9.141,35.471-5.041,35.864-20.094.556-19.826-26.193-52.972-25.776-28.649-.447-41.765,27.175-11.832,36.849,41.973,11.1,75.625,9.748,86.476,45.187,8.341,33.14-11.72,64.042-60.661,68.007-38.9,2.063-59.391-8.861-72.694-22.182C171.376,299.233,178.985,280.7,194.181,279.89Z"/>
</svg>
