<svg id="Иконки" xmlns="http://www.w3.org/2000/svg" width="500" height="500" viewBox="0 0 500 500">
  <metadata><?xpacket begin="﻿" id="W5M0MpCehiHzreSzNTczkc9d"?>
<x:xmpmeta xmlns:x="adobe:ns:meta/" x:xmptk="Adobe XMP Core 5.6-c142 79.160924, 2017/07/13-01:06:39        ">
   <rdf:RDF xmlns:rdf="http://www.w3.org/1999/02/22-rdf-syntax-ns#">
      <rdf:Description rdf:about=""/>
   </rdf:RDF>
</x:xmpmeta>
                                                                                                    
                                                                                                    
                                                                                                    
                                                                                                    
                                                                                                    
                                                                                                    
                                                                                                    
                                                                                                    
                                                                                                    
                                                                                                    
                                                                                                    
                                                                                                    
                                                                                                    
                                                                                                    
                                                                                                    
                                                                                                    
                                                                                                    
                                                                                                    
                                                                                                    
                                                                                                    
                           
<?xpacket end="w"?></metadata>
<defs>
    <style>
      .cls-1 {
        fill: #c24e45;
      }

      .cls-2 {
        fill: #fff;
        fill-rule: evenodd;
      }
    </style>
  </defs>
  <circle id="Круглый_фон" data-name="Круглый фон" class="cls-1" cx="250" cy="250" r="250"/>
  <path id="Mail" class="cls-2" d="M366.642,363a24.446,24.446,0,0,0,16.618-6.188L302.8,277.4c-1.93,1.364-3.8,2.691-5.57,3.953q-9.03,6.569-14.661,10.242a90.492,90.492,0,0,1-14.975,7.509,46.15,46.15,0,0,1-17.436,3.832H249.84A46.13,46.13,0,0,1,232.4,299.1a90.281,90.281,0,0,1-14.977-7.509q-5.628-3.671-14.661-10.242c-1.678-1.215-3.541-2.548-5.555-3.975l-80.479,79.438A24.461,24.461,0,0,0,133.354,363H366.642ZM127.275,227.389a83.654,83.654,0,0,1-16.01-13.61V334.606l70.921-69.995Q160.9,249.944,127.275,227.389Zm245.61,0q-32.384,21.631-55.046,37.25l70.892,69.968V213.779A87.089,87.089,0,0,1,372.885,227.389Zm-6.243-81.4H133.354q-12.207,0-18.78,8.131T108,174.461q0,9.85,8.714,21.353a78.158,78.158,0,0,0,18.543,18.062q5.388,3.757,32.492,22.291c9.754,6.67,18.235,12.485,25.527,17.5,6.212,4.272,11.57,7.973,16,11.044,0.507,0.351,1.3.915,2.367,1.663,1.141,0.809,2.588,1.837,4.37,3.108q5.151,3.677,8.558,5.945t8.242,5.083a48.488,48.488,0,0,0,9.115,4.225,25.554,25.554,0,0,0,7.922,1.407h0.317a25.545,25.545,0,0,0,7.923-1.407,48.327,48.327,0,0,0,9.114-4.225q4.833-2.816,8.244-5.083T284,269.486c1.781-1.271,3.226-2.3,4.369-3.105,1.059-.751,1.858-1.311,2.369-1.666,3.447-2.368,8.817-6.052,16.037-11q19.712-13.517,58.134-39.838a74.855,74.855,0,0,0,19.335-19.237Q392,183.381,392,171.022a23.849,23.849,0,0,0-7.526-17.677A24.676,24.676,0,0,0,366.642,145.994Z"/>
</svg>
