<svg id="Иконки" xmlns="http://www.w3.org/2000/svg" width="500" height="500" viewBox="0 0 500 500">
  <metadata><?xpacket begin="﻿" id="W5M0MpCehiHzreSzNTczkc9d"?>
<x:xmpmeta xmlns:x="adobe:ns:meta/" x:xmptk="Adobe XMP Core 5.6-c142 79.160924, 2017/07/13-01:06:39        ">
   <rdf:RDF xmlns:rdf="http://www.w3.org/1999/02/22-rdf-syntax-ns#">
      <rdf:Description rdf:about=""/>
   </rdf:RDF>
</x:xmpmeta>
                                                                                                    
                                                                                                    
                                                                                                    
                                                                                                    
                                                                                                    
                                                                                                    
                                                                                                    
                                                                                                    
                                                                                                    
                                                                                                    
                                                                                                    
                                                                                                    
                                                                                                    
                                                                                                    
                                                                                                    
                                                                                                    
                                                                                                    
                                                                                                    
                                                                                                    
                                                                                                    
                           
<?xpacket end="w"?></metadata>
<defs>
    <style>
      .cls-1 {
        fill: #6ab758;
      }

      .cls-2 {
        fill: #fff;
        fill-rule: evenodd;
      }
    </style>
  </defs>
  <circle id="Круглый_фон" data-name="Круглый фон" class="cls-1" cx="250" cy="250" r="250"/>
  <path id="whatsapp" class="cls-2" d="M252.473,100.227c-80.524,0-145.8,65.424-145.8,146.136a145.719,145.719,0,0,0,20.921,75.458l-26.317,78.4L182,374.321A144.966,144.966,0,0,0,252.473,392.5c80.537,0,145.815-65.432,145.815-146.135S333.01,100.227,252.473,100.227Zm0,24.477c-66.926,0-121.378,54.575-121.378,121.659a121.188,121.188,0,0,0,23.115,71.328l-15.162,45.174L185.694,347.9a120.521,120.521,0,0,0,66.779,20.113c66.937,0,121.387-54.572,121.387-121.65S319.41,124.7,252.473,124.7ZM327.81,284.189c-0.873-1.589-3.316-2.621-6.969-4.623s-21.609-11.717-24.977-13.09-5.822-2.083-8.447,1.558S277.346,279.8,275.089,282.21s-4.448,2.634-8.106.623-15.494-6.393-29.236-19.631c-10.693-10.3-17.706-22.795-19.74-26.608s-0.015-5.762,1.918-7.548c1.736-1.612,3.887-4.221,5.83-6.327a25.537,25.537,0,0,0,3.954-6.08,6.884,6.884,0,0,0-.068-6.546c-0.863-1.9-7.62-20.536-10.442-28.118s-5.966-6.455-8.139-6.541-4.641-.484-7.123-0.575a13.664,13.664,0,0,0-10.1,4.291c-3.55,3.6-13.5,12.265-14.189,30.625s11.986,36.588,13.753,39.142,24.2,42.345,61.472,58.707,37.477,11.371,44.317,11,22.358-8.2,25.788-16.79S328.682,285.78,327.81,284.189Z"/>
</svg>
