<svg id="Иконки" xmlns="http://www.w3.org/2000/svg" width="500" height="500" viewBox="0 0 500 500">
  <metadata><?xpacket begin="﻿" id="W5M0MpCehiHzreSzNTczkc9d"?>
<x:xmpmeta xmlns:x="adobe:ns:meta/" x:xmptk="Adobe XMP Core 5.6-c142 79.160924, 2017/07/13-01:06:39        ">
   <rdf:RDF xmlns:rdf="http://www.w3.org/1999/02/22-rdf-syntax-ns#">
      <rdf:Description rdf:about=""/>
   </rdf:RDF>
</x:xmpmeta>
                                                                                                    
                                                                                                    
                                                                                                    
                                                                                                    
                                                                                                    
                                                                                                    
                                                                                                    
                                                                                                    
                                                                                                    
                                                                                                    
                                                                                                    
                                                                                                    
                                                                                                    
                                                                                                    
                                                                                                    
                                                                                                    
                                                                                                    
                                                                                                    
                                                                                                    
                                                                                                    
                           
<?xpacket end="w"?></metadata>
<defs>
    <style>
      .cls-1 {
        fill: #346d47;
      }

      .cls-2 {
        fill: #fff;
        fill-rule: evenodd;
      }
    </style>
  </defs>
  <circle id="Круглый_фон" data-name="Круглый фон" class="cls-1" cx="250" cy="250" r="250"/>
  <path id="Phone" class="cls-2" d="M378.7,334.5l-42.931-42.885c-8.547-8.5-22.715-8.243-31.562.594l-21.626,21.6c-1.368-.758-2.778-1.545-4.269-2.377-13.655-7.558-32.352-17.914-52.026-37.578-19.724-19.7-30.111-38.4-37.7-52.05-0.8-1.447-1.571-2.841-2.325-4.165l14.516-14.475,7.134-7.138c8.863-8.854,9.107-22.991.575-31.523l-42.932-42.885c-8.528-8.517-22.7-8.26-31.561.594l-12.1,12.153,0.334,0.329a69.768,69.768,0,0,0-9.971,17.562,72.66,72.66,0,0,0-4.438,17.816c-5.665,46.937,15.809,89.833,74.089,148.041C262.469,398.573,327.393,392.494,330.2,392.2a72.587,72.587,0,0,0,17.886-4.488,69.807,69.807,0,0,0,17.524-9.915l0.264,0.234,12.258-11.988C386.976,357.186,387.223,343.047,378.7,334.5Z"/>
</svg>
